# xmcd
#
# Track frame offsets:
#	150
#	18343
#	39195
#	56240
#	75173
#	89201
#	107748
#	117964
#	143772
#	160906
#	181744
#	206547
#	230848
#	248346
#	261623
#	286993
#	302144
#	322538
#	339087
#
# Disc length: 4767 seconds
#
# Revision: 2
# Processed by: cddbd v1.5.1PL0 Copyright (c) Steve Scherf et al.
# Submitted via: CDmax 2.0
#
DISCID=f9129d13
DTITLE=Various Artist - Timeless IV
DYEAR=2001
DGENRE=New Age
TTITLE0=BNP Corp - Bach To The Future
TTITLE1=Paul Hardcastle - First Light (Part 2)
TTITLE2=Lesiëm - Africa
TTITLE3=Gregorian Chants - Child In Time
TTITLE4=Gregor Theelan - Arizona Dreams
TTITLE5=Deep Forest - Night Village
TTITLE6=Jean Michel Jarre - Silhouette
TTITLE7=Llewellyn - The Piper
TTITLE8=Angelit - Cilli Geres (Gossiping Woman)
TTITLE9=N'Dungu - The A. Spirit
TTITLE10=Mystic Diversions - The Love Dance
TTITLE11=Event - Riders On The Storm
TTITLE12=Tsunami - Union
TTITLE13=Henri Seroka - Atlantis
TTITLE14=Aria - Addio
TTITLE15=Libera - Salva Me
TTITLE16=Ductia - Stirru Siccu
TTITLE17=Blackmore's Night - Hanging Tree
TTITLE18=Quanco Rodriguez - Fire Dancing
EXTD=YEAR: 2001
EXTT0=
EXTT1=
EXTT2=
EXTT3=
EXTT4=
EXTT5=
EXTT6=
EXTT7=
EXTT8=
EXTT9=
EXTT10=
EXTT11=
EXTT12=
EXTT13=
EXTT14=
EXTT15=
EXTT16=
EXTT17=
EXTT18=
PLAYORDER=
